<svg width="37" height="37" xmlns="http://www.w3.org/2000/svg" xmlns:svg="http://www.w3.org/2000/svg">
 <g>
  <title>Layer 1</title>
  <path id="first_biggest" fill="#363636" d="m18.58831,36.99035c0,-13.77127 -4.59042,-18.36169 -18.36169,-18.36169c13.77127,0 18.36169,-2.29521 18.36169,-18.36169c0,16.06648 4.59042,18.36169 18.36169,18.36169c-13.77127,0 -18.36169,4.59042 -18.36169,18.36169z"/>
  <path fill="#363636" d="m18.6665,32.32173c0,-10.32845 -3.44281,-13.77127 -13.77127,-13.77127c10.32845,0 13.77127,-1.72141 13.77127,-13.77127c0,12.04986 3.44282,13.77127 13.77127,13.77127c-10.32845,0 -13.77127,3.44282 -13.77127,13.77127z" id="second_smaller" transform="rotate(45 18.533016204833988,18.495172500610348) "/>
  <path id="mini_inverted" fill="#ffffff" d="m18.55077,29.4068c0,-7.83019 -2.61006,-10.44026 -10.44026,-10.44026c7.83019,0 10.44026,-1.30503 10.44026,-10.44026c0,9.13522 2.61006,10.44026 10.44026,10.44026c-7.83019,0 -10.44026,2.61006 -10.44026,10.44026z"/>
 </g>
</svg>
